<?xml version="1.0" encoding="utf-8"?>
<!-- Generator: Adobe Illustrator 22.1.0, SVG Export Plug-In . SVG Version: 6.00 Build 0)  -->
<svg version="1.1" id="Layer_1" xmlns="http://www.w3.org/2000/svg" xmlns:xlink="http://www.w3.org/1999/xlink" x="0px" y="0px"
	 viewBox="0 0 1920 1080" style="enable-background:new 0 0 1920 1080;" xml:space="preserve">
<style type="text/css">
	.st0{fill:#F4F4FC;}
	.st1{fill:#6D91CF;}
	.st2{fill:#FFACBA;}
	.st3{fill:#FFDFAA;}
</style>
<g>
	<g>
		<ellipse class="st0" cx="961" cy="541" rx="1357.6" ry="763.7"/>
		<path class="st1" d="M89.2,180.8c-0.9-7.4-2.2-14.8-2-22.3c0.5-22.1,6.1-42.6,17.8-61.5c12.4-19.9,29.1-34.9,50-45.3
			c12.6-6.3,25.9-10.2,39.9-11.8c25.7-3.1,50.2,0.8,73,12.9c34.2,18,55.9,46.1,63.7,84.2c5.2,25.5,1.6,50.3-9.8,73.7
			c-12.2,25.2-31.3,43.6-56.2,56c-12.4,6.2-25.6,9.9-39.5,11.6c-25.5,3.1-49.7-1.1-72.6-12.6c-4.6-2.3-8.9-5.1-13.4-7.7
			c-1.5-1.7-0.5-3.5,0-5.2c9.7-32.7-13.1-64.9-44-69.6C93.7,182.7,91,183,89.2,180.8z"/>
		<path class="st2" d="M1731.9,950.1c-11.8-3.6-22.4-9.8-32.9-17c-1.6,4.2-2.5,8-4.3,11.5c-7.5,14.3-19.1,23.7-35,26.1
			c-15.8,2.4-29.8-2.3-41.2-14.2c-8.6-9-12.9-19.9-13.3-31.9c-0.4-12.4,3.4-23.9,12-33.4c6.2-6.8,13.3-11.9,22.3-14.4
			c8-2.2,16-2.2,24.1-0.6c3.2,0.6,3.2,0.5,3.4-2.7c0.9-17.8,7.2-33.2,19.3-46.4c14.2-15.5,31.8-25.2,51.8-31.1
			c16-4.8,32.4-6,48.8-4.7c24.7,1.9,47.4,9.9,67,25.5c12.3,9.8,21.6,21.9,26.6,37.2c6.1,19,3.6,37-6.2,54.2
			c-9.4,16.5-23.8,27.4-40.3,36c-2.3,0.2-2.6-1.7-3.3-3.1c-7.6-14.9-19.7-23.9-36.1-27.1c-19.5-3.7-36.5,1.2-50.5,15.5
			c-4.5,4.6-7.6,10-9.6,16.2C1734,947.2,1733.8,949.1,1731.9,950.1z"/>
		<path class="st2" d="M89.2,180.8c15.6,1.2,29.1,6.9,39.7,18.5c7.8,8.5,12.4,18.6,14.3,30.2c1.6,9.9-0.6,19.1-3.1,28.4
			c-3.1,3.9-4.6,8.8-7.7,12.7c-9,11.2-20.2,18.8-34.4,21.3c-21.4,3.9-39.9-2-54.6-18.1c-7.6-8.3-12.1-18.2-13.4-29.5
			c-2.7-22.6,5.9-40.3,23.9-53.5c8.7-6.4,19-9.4,29.8-9.9C85.5,180.9,87.4,180.8,89.2,180.8z"/>
		<path class="st3" d="M320.4,325c-9.4,0-16,0.5-22.4-0.1c-9.1-0.8-18.1-1.3-27.2-2.6c-10.5-1.5-20.9-3.5-31.1-6.4
			c-6.2-1.8-12.3-4.1-17.6-7.9c-9.1-6.6-9-13.4,0-19.9c7.6-5.5,16.5-7.6,25.4-9.9c10.3-2.7,20.8-4,31.3-5.3
			c19.6-2.4,39.2-2.2,58.8-1.6c8.5,0.2,17.1,1.3,25.7,2.4c11.9,1.5,23.5,4,35,7.4c5.4,1.6,10.6,3.9,15.3,7.2
			c2.3,1.6,4.2,3.7,5.5,6.3c1.8,3.5,1,6.4-1.2,9.2c-2.4,3.1-5.6,5.1-9,6.9c-9.4,4.9-19.6,7.3-29.8,9.3c-11.5,2.3-23.2,3.4-35,4.3
			C335,324.9,326.2,324.6,320.4,325z"/>
		<path class="st3" d="M1731.9,950.1c2-9.3,6.4-17.3,13.3-23.9c8.3-7.9,18.2-12.2,29.4-14.3c11.4-2.1,22.1-0.1,32.4,4.3
			c11.5,5,20.2,13.2,25.1,24.9c0.4,1.1,0.8,2.2,1.8,2.9c-0.1,2.5,0.8,4.9,1.2,7.3c2.2,12.9-1.6,24-9.8,33.6
			c-8.9,10.4-20.3,16.2-33.9,18.1c-15.2,2.1-29-1.2-41.3-10.1c-9.6-7-15.8-16.3-18.2-28.1C1731,959.9,1730.9,955,1731.9,950.1z"/>
		<path class="st1" d="M1863.6,1061.1c-9.2,0-16.6-2.1-23-7.2c-12.2-9.7-12.7-25.4-0.5-35.5c12.5-10.3,32.2-10.2,44.8,0.1
			c11.8,9.6,11.7,25.8-0.2,35.2C1878.2,1058.9,1870.8,1061.3,1863.6,1061.1z"/>
	</g>
</g>
</svg>
